<svg width="32" height="32" viewBox="0 0 32 32" fill="none" xmlns="http://www.w3.org/2000/svg">
<path d="M32 16C32 24.8366 24.8366 32 16 32C7.16344 32 0 24.8366 0 16C0 7.16344 7.16344 0 16 0C24.8366 0 32 7.16344 32 16Z" fill="white"/>
<path d="M4.90667 22.0267C4.29037 22.0267 3.72741 21.8904 3.21778 21.6178C2.70815 21.3452 2.29926 20.9541 1.99111 20.4444C1.69481 19.9348 1.54667 19.3244 1.54667 18.6133C1.54667 18.08 1.64741 17.4933 1.84889 16.8533C2.06222 16.2015 2.39407 15.5141 2.84444 14.7911C3.29482 14.08 3.80444 13.4281 4.37333 12.8356C4.95407 12.243 5.53482 11.7452 6.11556 11.3422C6.70815 10.9274 7.24148 10.643 7.71556 10.4889C8.10667 10.3467 8.50963 10.2756 8.92445 10.2756C9.42222 10.2756 9.85482 10.4178 10.2222 10.7022C10.5896 10.9867 10.7733 11.4607 10.7733 12.1244C10.7733 12.3496 10.7496 12.5748 10.7022 12.8C10.6548 13.0133 10.6133 13.1733 10.5778 13.28C10.5659 13.3511 10.5422 13.3867 10.5067 13.3867C10.4356 13.3867 10.4119 13.3215 10.4356 13.1911C10.4593 13.0844 10.477 12.9896 10.4889 12.9067C10.5126 12.8119 10.5244 12.7289 10.5244 12.6578C10.5244 12.3733 10.4415 12.1719 10.2756 12.0533C10.1096 11.923 9.88444 11.8578 9.6 11.8578C9.19704 11.8578 8.71704 11.9644 8.16 12.1778C7.60296 12.3911 7.0163 12.6874 6.4 13.0667C5.79556 13.4341 5.22074 13.8548 4.67556 14.3289C4.13037 14.7911 3.67407 15.277 3.30667 15.7867C2.84444 16.4267 2.50074 17.0311 2.27556 17.6C2.05037 18.1689 1.93778 18.6844 1.93778 19.1467C1.93778 19.763 2.13333 20.2548 2.52444 20.6222C2.92741 20.9896 3.50815 21.1733 4.26667 21.1733C4.61037 21.1733 4.9837 21.1378 5.38667 21.0667C5.78963 20.9837 6.22815 20.8593 6.70222 20.6933C7.40148 20.4444 8.10667 20.0889 8.81778 19.6267C9.54074 19.1644 10.1867 18.5837 10.7556 17.8844C11.2889 17.2207 11.763 16.4089 12.1778 15.4489C12.5926 14.477 12.8 13.3807 12.8 12.16C12.8 11.5081 12.7407 11.0104 12.6222 10.6667C12.5156 10.3111 12.3793 10.0622 12.2133 9.92C12.0593 9.77778 11.9111 9.70667 11.7689 9.70667C11.7215 9.70667 11.6622 9.71852 11.5911 9.74222C11.5793 9.74222 11.5674 9.74815 11.5556 9.76C11.5556 9.76 11.5496 9.76 11.5378 9.76C11.5022 9.76 11.4844 9.74222 11.4844 9.70667C11.4844 9.64741 11.5259 9.6 11.6089 9.56444C11.7037 9.52889 11.8104 9.51111 11.9289 9.51111C12.1541 9.51111 12.3852 9.58815 12.6222 9.74222C12.8593 9.8963 13.0607 10.157 13.2267 10.5244C13.4044 10.8919 13.4933 11.3896 13.4933 12.0178C13.4933 12.8948 13.3511 13.7185 13.0667 14.4889C12.7941 15.2474 12.4504 15.9467 12.0356 16.5867C11.6207 17.2267 11.2119 17.8015 10.8089 18.3111C10.3822 18.8563 9.84296 19.4193 9.19111 20C8.53926 20.5689 7.85778 21.043 7.14667 21.4222C6.77926 21.6237 6.4 21.7719 6.00889 21.8667C5.62963 21.9733 5.26222 22.0267 4.90667 22.0267Z" fill="black"/>
<path d="M22.9394 21.7422C22.8802 21.7422 22.8506 21.677 22.8506 21.5467C22.8506 21.4281 22.8861 21.2622 22.9572 21.0489C23.0757 20.7052 23.2831 20.243 23.5794 19.6622C23.8876 19.0815 24.2431 18.4356 24.6461 17.7244C25.0609 17.0133 25.4994 16.2785 25.9617 15.52C26.4357 14.7615 26.898 14.0326 27.3483 13.3333C27.8106 12.6222 28.2313 11.9822 28.6106 11.4133C29.0017 10.8444 29.3217 10.3941 29.5706 10.0622C29.8313 9.73037 29.9913 9.56444 30.0506 9.56444H30.2106C30.3172 9.56444 30.3706 9.6 30.3706 9.67111C30.3706 9.74222 30.3054 9.86074 30.175 10.0267C29.6772 10.6785 29.1498 11.4133 28.5928 12.2311C28.0357 13.037 27.4787 13.8726 26.9217 14.7378C26.3765 15.603 25.855 16.4563 25.3572 17.2978C24.8594 18.1393 24.415 18.9274 24.0239 19.6622C23.6328 20.397 23.3246 21.0252 23.0994 21.5467C23.0402 21.677 22.9869 21.7422 22.9394 21.7422ZM15.4372 23.8933C15.378 23.8933 15.3483 23.8281 15.3483 23.6978C15.3483 23.5793 15.3839 23.4133 15.455 23.2C15.5735 22.8563 15.7869 22.3822 16.095 21.7778C16.415 21.1852 16.7943 20.5215 17.2328 19.7867C17.6713 19.04 18.1276 18.2756 18.6017 17.4933C18.3409 17.5289 18.0802 17.5644 17.8194 17.6C17.5706 17.6356 17.3276 17.677 17.0906 17.7244C15.5617 17.9852 14.4417 18.3526 13.7306 18.8267C13.0313 19.2889 12.6817 19.7156 12.6817 20.1067C12.6817 20.3437 12.7943 20.5511 13.0194 20.7289C13.0431 20.7526 13.055 20.7704 13.055 20.7822C13.055 20.7941 13.0313 20.8 12.9839 20.8C12.9128 20.8 12.8594 20.7822 12.8239 20.7467C12.3143 20.3674 12.0594 19.9052 12.0594 19.36C12.0594 18.9689 12.2076 18.5778 12.5039 18.1867C12.812 17.7956 13.2861 17.44 13.9261 17.12C14.578 16.7881 15.4135 16.5333 16.4328 16.3556C16.9306 16.2607 17.4343 16.1896 17.9439 16.1422C18.4654 16.0948 18.9809 16.077 19.4906 16.0889C19.9054 15.437 20.3083 14.8207 20.6994 14.24C21.0906 13.6593 21.4402 13.1437 21.7483 12.6933C22.0683 12.2311 22.3291 11.8696 22.5306 11.6089C22.7439 11.3481 22.8743 11.2178 22.9217 11.2178H23.0817C23.1883 11.2178 23.2417 11.2533 23.2417 11.3244C23.2417 11.3956 23.1765 11.5141 23.0461 11.68C22.5957 12.2844 22.1039 12.9719 21.5706 13.7422C21.0372 14.5007 20.5039 15.2889 19.9706 16.1067C20.5276 16.1422 21.0787 16.2133 21.6239 16.32C21.8372 16.3674 22.0861 16.4326 22.3706 16.5156C22.655 16.5985 22.9335 16.7052 23.2061 16.8356C23.4906 16.9541 23.7335 17.1081 23.935 17.2978C24.1365 17.4874 24.255 17.7126 24.2906 17.9733C24.3024 18.0563 24.2906 18.0978 24.255 18.0978C24.2313 18.0859 24.2076 18.0563 24.1839 18.0089C24.1365 17.8667 23.9765 17.7541 23.7039 17.6711C23.4431 17.5881 23.1646 17.5289 22.8683 17.4933C22.5839 17.4459 22.3706 17.4163 22.2283 17.4044C21.8609 17.3689 21.4757 17.3511 21.0728 17.3511C20.4209 17.3511 19.7631 17.3867 19.0994 17.4578C18.5898 18.2637 18.1039 19.0578 17.6417 19.84C17.1794 20.6104 16.7706 21.3274 16.415 21.9911C16.0713 22.6548 15.7987 23.2237 15.5972 23.6978C15.538 23.8281 15.4846 23.8933 15.4372 23.8933Z" fill="black"/>
</svg>
