<svg width="32" height="32" viewBox="0 0 32 32" fill="none" xmlns="http://www.w3.org/2000/svg">
<path d="M32 16C32 24.8366 24.8366 32 16 32C7.16344 32 0 24.8366 0 16C0 7.16344 7.16344 0 16 0C24.8366 0 32 7.16344 32 16Z" fill="white"/>
<path d="M23.5833 12.3571H22.695L20.8533 5.83857C20.7009 5.30107 20.4239 4.83662 20.0597 4.50786C19.6955 4.1791 19.2617 4.00184 18.8167 4H17.0833C16.4875 4 16 4.62679 16 5.39286C16 6.15893 16.4875 6.78571 17.0833 6.78571H18.8167L20.3983 12.3571H15.1875L14.7975 10.9643H14.895C15.4908 10.9643 15.9783 10.3375 15.9783 9.57143C15.9783 8.80536 15.4908 8.17857 14.895 8.17857H11.6667C11.0708 8.17857 10.5833 8.80536 10.5833 9.57143C10.5833 10.3375 11.0708 10.9643 11.6667 10.9643H12.4792L14.4508 17.9286H13.725C13.2483 14.8225 11.2225 12.5243 8.6875 12.3711C5.65417 12.1761 3 15.4214 3 19.3214C3 23.2214 5.38333 26.2857 8.41667 26.2857C11.0817 26.2857 13.2375 23.9318 13.725 20.7143H18.275C18.7517 23.8204 20.7775 26.1186 23.3125 26.2718C26.3458 26.4529 29 23.2214 29 19.3075C29 15.4214 26.6167 12.3571 23.5833 12.3571ZM9.5 20.7143H11.4717C11.0167 22.4275 9.73833 23.6114 8.2 23.4861C6.58583 23.3607 5.2425 21.6057 5.16667 19.5164C5.09083 17.0789 6.5425 15.1429 8.41667 15.1429C9.8575 15.1429 11.0383 16.2989 11.4717 17.9286H9.5C8.90417 17.9286 8.41667 18.5554 8.41667 19.3214C8.41667 20.0875 8.90417 20.7143 9.5 20.7143ZM18.275 17.9286H16.7583L15.9675 15.1429H19.25C18.7733 15.9507 18.4267 16.8839 18.275 17.9286ZM23.4533 23.5C21.785 23.4164 20.3767 21.5918 20.3333 19.4329C20.3117 18.0957 20.7558 16.9257 21.4708 16.1457L22.1425 18.5136C22.3483 19.2379 22.9658 19.6139 23.5292 19.3493C24.0925 19.0846 24.385 18.2907 24.1792 17.5664L23.4967 15.1568L23.5075 15.1429C23.9418 15.1238 24.3747 15.2181 24.7799 15.4201C25.1851 15.6221 25.5543 15.9276 25.8651 16.3182C26.1759 16.7087 26.422 17.1761 26.5884 17.6923C26.7548 18.2085 26.8381 18.7627 26.8333 19.3214C26.8333 21.7171 25.3383 23.5836 23.4533 23.5Z" fill="url(#paint0_linear_105_152)"/>
<defs>
<linearGradient id="paint0_linear_105_152" x1="16" y1="0" x2="16" y2="32" gradientUnits="userSpaceOnUse">
<stop stop-color="#FFBB00"/>
<stop offset="1" stop-color="#DB9100"/>
</linearGradient>
</defs>
</svg>
