<svg width="18" height="18" viewBox="0 0 18 18" fill="none" xmlns="http://www.w3.org/2000/svg">
<path d="M10.5 6.6C10.5 6.525 10.525 6.45312 10.575 6.38437C10.625 6.31562 10.6812 6.26875 10.7437 6.24375C11.1187 6.10625 11.5031 6 11.8969 5.925C12.2906 5.85 12.7 5.8125 13.125 5.8125C13.4 5.8125 13.6688 5.82812 13.9313 5.85937C14.1938 5.89062 14.45 5.9375 14.7 6C14.775 6.025 14.8438 6.07187 14.9062 6.14062C14.9688 6.20937 15 6.2875 15 6.375C15 6.5125 14.9531 6.61875 14.8594 6.69375C14.7656 6.76875 14.65 6.7875 14.5125 6.75C14.3 6.6875 14.0781 6.64062 13.8469 6.60937C13.6156 6.57812 13.375 6.5625 13.125 6.5625C12.7625 6.5625 12.4125 6.59687 12.075 6.66562C11.7375 6.73437 11.4062 6.8375 11.0812 6.975C10.9062 7.0375 10.7656 7.03438 10.6594 6.96563C10.5531 6.89687 10.5 6.775 10.5 6.6ZM10.5 10.725C10.5 10.65 10.525 10.575 10.575 10.5C10.625 10.425 10.6812 10.375 10.7437 10.35C11.1187 10.2125 11.5031 10.1094 11.8969 10.0406C12.2906 9.97187 12.7 9.9375 13.125 9.9375C13.4 9.9375 13.6688 9.95312 13.9313 9.98437C14.1938 10.0156 14.45 10.0625 14.7 10.125C14.775 10.15 14.8438 10.1969 14.9062 10.2656C14.9688 10.3344 15 10.4125 15 10.5C15 10.6375 14.9531 10.7437 14.8594 10.8187C14.7656 10.8937 14.65 10.9125 14.5125 10.875C14.3 10.8125 14.0781 10.7656 13.8469 10.7344C13.6156 10.7031 13.375 10.6875 13.125 10.6875C12.7625 10.6875 12.4125 10.7187 12.075 10.7812C11.7375 10.8437 11.4062 10.9437 11.0812 11.0812C10.9062 11.1437 10.7656 11.1437 10.6594 11.0812C10.5531 11.0187 10.5 10.9 10.5 10.725ZM10.5 8.6625C10.5 8.5875 10.525 8.51562 10.575 8.44687C10.625 8.37812 10.6812 8.33125 10.7437 8.30625C11.1187 8.16875 11.5031 8.0625 11.8969 7.9875C12.2906 7.9125 12.7 7.875 13.125 7.875C13.4 7.875 13.6688 7.89062 13.9313 7.92187C14.1938 7.95312 14.45 8 14.7 8.0625C14.775 8.0875 14.8438 8.13437 14.9062 8.20312C14.9688 8.27187 15 8.35 15 8.4375C15 8.575 14.9531 8.68125 14.8594 8.75625C14.7656 8.83125 14.65 8.85 14.5125 8.8125C14.3 8.75 14.0781 8.70312 13.8469 8.67187C13.6156 8.64062 13.375 8.625 13.125 8.625C12.7625 8.625 12.4125 8.65937 12.075 8.72812C11.7375 8.79687 11.4062 8.9 11.0812 9.0375C10.9062 9.1 10.7656 9.09687 10.6594 9.02812C10.5531 8.95937 10.5 8.8375 10.5 8.6625ZM4.65 12.375C5.325 12.375 5.97813 12.4531 6.60938 12.6094C7.24062 12.7656 7.8625 13 8.475 13.3125V5.30625C7.9125 4.93125 7.30313 4.64062 6.64688 4.43437C5.99063 4.22812 5.325 4.125 4.65 4.125C4.175 4.125 3.70938 4.18438 3.25313 4.30313C2.79688 4.42188 2.3375 4.56875 1.875 4.74375V12.8812C2.2625 12.7062 2.70312 12.5781 3.19687 12.4969C3.69062 12.4156 4.175 12.375 4.65 12.375ZM9.6 13.3125C10.225 13 10.8375 12.7656 11.4375 12.6094C12.0375 12.4531 12.675 12.375 13.35 12.375C13.825 12.375 14.3156 12.4125 14.8219 12.4875C15.3281 12.5625 15.7625 12.6625 16.125 12.7875V4.74375C15.7 4.53125 15.25 4.375 14.775 4.275C14.3 4.175 13.825 4.125 13.35 4.125C12.675 4.125 12.0219 4.22812 11.3906 4.43437C10.7594 4.64062 10.1625 4.93125 9.6 5.30625V13.3125ZM9.0375 14.7937C8.9375 14.7937 8.84688 14.7844 8.76562 14.7656C8.68437 14.7469 8.6125 14.7125 8.55 14.6625C7.9625 14.3 7.3375 14.0187 6.675 13.8187C6.0125 13.6187 5.3375 13.5187 4.65 13.5187C4.1875 13.5187 3.7375 13.575 3.3 13.6875C2.8625 13.8 2.425 13.9375 1.9875 14.1C1.7 14.2375 1.42188 14.2187 1.15313 14.0437C0.884375 13.8687 0.75 13.6187 0.75 13.2937V4.6125C0.75 4.425 0.79375 4.25312 0.88125 4.09687C0.96875 3.94063 1.1 3.81875 1.275 3.73125C1.8 3.48125 2.34688 3.29688 2.91563 3.17813C3.48438 3.05938 4.0625 3 4.65 3C5.4375 3 6.20312 3.10625 6.94687 3.31875C7.69062 3.53125 8.3875 3.85625 9.0375 4.29375C9.675 3.85625 10.3594 3.53125 11.0906 3.31875C11.8219 3.10625 12.575 3 13.35 3C13.9375 3 14.5125 3.05938 15.075 3.17813C15.6375 3.29688 16.1812 3.48125 16.7062 3.73125C16.8813 3.81875 17.0156 3.94063 17.1094 4.09687C17.2031 4.25312 17.25 4.425 17.25 4.6125V13.2937C17.25 13.6437 17.1094 13.9094 16.8281 14.0906C16.5469 14.2719 16.2688 14.275 15.9938 14.1C15.5688 13.925 15.1375 13.7844 14.7 13.6781C14.2625 13.5719 13.8125 13.5187 13.35 13.5187C12.675 13.5187 12.0125 13.6187 11.3625 13.8187C10.7125 14.0187 10.1 14.3 9.525 14.6625C9.4625 14.7125 9.39062 14.7469 9.30938 14.7656C9.22813 14.7844 9.1375 14.7937 9.0375 14.7937Z" fill="#125FD2"/>
</svg>
