<svg width="210" height="51" viewBox="0 0 210 51" fill="none" xmlns="http://www.w3.org/2000/svg">
<path d="M33.6558 2.43999L27.6078 37H18.9198L21.1278 24.52H11.7678L9.6078 37H0.9198L7.0158 2.43999H15.6558L13.0638 17.032H22.4238L25.0158 2.43999H33.6558Z" fill="#141414"/>
<path d="M44.2285 37.672C37.5725 37.672 34.2445 35.368 34.2445 30.76C34.2445 30.12 34.3086 29.432 34.4366 28.696L35.4445 22.744C35.9885 19.672 37.3965 17.32 39.6685 15.688C41.9725 14.024 45.0126 13.192 48.7886 13.192C55.2206 13.192 58.4366 15.624 58.4366 20.488C58.4366 21.192 58.3726 21.96 58.2446 22.792L57.6685 26.2H43.0285L42.8366 27.304C42.7726 27.688 42.7406 28.04 42.7406 28.36C42.7406 30.12 43.7805 31 45.8605 31C46.6285 31 47.2846 30.76 47.8286 30.28C48.3726 29.8 48.6926 29.24 48.7886 28.6L56.7565 28.696C55.7006 34.68 51.5246 37.672 44.2285 37.672ZM49.9886 23.272C50.1166 22.728 50.1805 22.232 50.1805 21.784C50.1805 21.304 49.9725 20.824 49.5565 20.344C49.1405 19.864 48.4686 19.624 47.5406 19.624C46.6446 19.624 45.8126 19.928 45.0446 20.536C44.3086 21.144 43.7965 22.056 43.5085 23.272H49.9886Z" fill="#141414"/>
<path d="M76.4729 22.264C76.4729 20.888 75.8009 20.2 74.4569 20.2C73.1449 20.2 72.0569 20.696 71.1929 21.688L68.5049 37H60.3449L64.4249 13.912H72.0089L71.4809 16.744C73.3689 14.408 75.7529 13.24 78.6329 13.24C81.5129 13.24 83.3849 13.944 84.2489 15.352C84.7929 16.248 85.0649 17.272 85.0649 18.424C85.0649 19.576 84.9849 20.648 84.8249 21.64L83.5289 29.032C83.4969 29.224 83.4809 29.4 83.4809 29.56C83.4809 30.424 83.9609 30.856 84.9209 30.856C85.6569 30.856 86.3129 30.696 86.8889 30.376L86.6489 35.8C85.1449 37.048 83.4329 37.672 81.5129 37.672C77.1609 37.672 74.9849 35.848 74.9849 32.2C74.9849 31.56 75.0489 30.872 75.1769 30.136L76.3289 23.752C76.4249 23.176 76.4729 22.68 76.4729 22.264Z" fill="#141414"/>
<path d="M112.984 18.808C112.984 19.896 112.792 20.952 112.408 21.976C112.056 23 111.704 23.752 111.352 24.232L110.824 24.904H103.576C104.376 24.168 104.776 23.256 104.776 22.168C104.776 21.592 104.584 21.128 104.2 20.776C103.848 20.392 103.352 20.2 102.712 20.2C101.624 20.2 100.68 20.744 99.8804 21.832L97.1924 37H89.0324L93.1124 13.912H100.696L100.12 17.128C101.944 14.536 104.152 13.24 106.744 13.24C108.824 13.24 110.376 13.736 111.4 14.728C112.456 15.72 112.984 17.08 112.984 18.808Z" fill="#141414"/>
<path d="M124.489 30.856C125.225 30.856 125.881 30.696 126.457 30.376L126.217 35.8C124.713 37.048 123.001 37.672 121.081 37.672C118.169 37.672 116.281 37 115.417 35.656C114.841 34.76 114.553 33.816 114.553 32.824C114.553 31.8 114.617 30.904 114.745 30.136L117.625 13.912H125.785L123.097 29.032C123.065 29.224 123.049 29.4 123.049 29.56C123.049 30.424 123.529 30.856 124.489 30.856ZM118.585 6.08799C118.585 4.03999 119.033 2.55199 119.929 1.62399C120.857 0.66399 122.281 0.18399 124.201 0.18399C126.889 0.18399 128.233 1.36799 128.233 3.73599C128.233 5.75199 127.769 7.22399 126.841 8.15199C125.945 9.07999 124.521 9.54399 122.569 9.54399C119.913 9.54399 118.585 8.39199 118.585 6.08799Z" fill="#141414"/>
<path d="M136.752 37.672C133.776 37.672 131.664 36.872 130.416 35.272C129.552 34.152 129.12 32.696 129.12 30.904C129.12 30.136 129.2 29.288 129.36 28.36L130.368 22.744C130.88 19.864 132.048 17.576 133.872 15.88C135.728 14.152 138.128 13.288 141.072 13.288C144.048 13.288 146.064 13.976 147.12 15.352L147.36 13.912H154.608L148.176 50.344H140.016L142.656 35.512C141.024 36.952 139.056 37.672 136.752 37.672ZM137.712 27.304C137.648 27.592 137.616 27.992 137.616 28.504C137.616 29.016 137.856 29.528 138.336 30.04C138.816 30.52 139.616 30.76 140.736 30.76C141.888 30.76 142.88 30.312 143.712 29.416L145.152 21.352C144.8 20.552 143.968 20.152 142.656 20.152C140.192 20.152 138.752 21.336 138.336 23.704L137.712 27.304Z" fill="#141414"/>
<path d="M179.169 29.608C179.169 30.44 179.585 30.856 180.417 30.856C181.281 30.856 182.001 30.696 182.577 30.376L182.337 35.8C180.801 37.048 179.073 37.672 177.153 37.672C173.537 37.672 171.569 36.28 171.249 33.496C169.329 36.28 166.737 37.672 163.473 37.672C160.241 37.672 158.145 36.936 157.185 35.464C156.545 34.536 156.225 33.48 156.225 32.296C156.225 31.112 156.321 30.024 156.513 29.032L159.201 13.912H167.361L165.105 26.68C165.009 27.256 164.961 27.832 164.961 28.408C164.961 29.944 165.825 30.712 167.553 30.712C168.993 30.712 170.145 30.216 171.009 29.224L173.745 13.912H181.905L179.217 29.032C179.185 29.224 179.169 29.416 179.169 29.608Z" fill="#141414"/>
<path d="M195.26 37.672C188.604 37.672 185.276 35.368 185.276 30.76C185.276 30.12 185.34 29.432 185.468 28.696L186.476 22.744C187.02 19.672 188.428 17.32 190.7 15.688C193.004 14.024 196.044 13.192 199.82 13.192C206.252 13.192 209.468 15.624 209.468 20.488C209.468 21.192 209.404 21.96 209.276 22.792L208.7 26.2H194.06L193.868 27.304C193.804 27.688 193.772 28.04 193.772 28.36C193.772 30.12 194.812 31 196.892 31C197.66 31 198.316 30.76 198.86 30.28C199.404 29.8 199.724 29.24 199.82 28.6L207.788 28.696C206.732 34.68 202.556 37.672 195.26 37.672ZM201.02 23.272C201.148 22.728 201.212 22.232 201.212 21.784C201.212 21.304 201.004 20.824 200.588 20.344C200.172 19.864 199.5 19.624 198.572 19.624C197.676 19.624 196.844 19.928 196.076 20.536C195.34 21.144 194.828 22.056 194.54 23.272H201.02Z" fill="#141414"/>
</svg>
