<svg width="18" height="18" viewBox="0 0 18 18" fill="none" xmlns="http://www.w3.org/2000/svg">
<path d="M9.95625 16.5C9.66875 16.5 9.45937 16.4062 9.32812 16.2188C9.19687 16.0312 9.18125 15.8 9.28125 15.525L12.0375 8.2125C12.1125 8.0125 12.25 7.84375 12.45 7.70625C12.65 7.56875 12.8562 7.5 13.0687 7.5C13.2812 7.5 13.4906 7.56875 13.6969 7.70625C13.9031 7.84375 14.0437 8.0125 14.1187 8.2125L16.9312 15.45C17.0437 15.7375 17.0312 15.9844 16.8937 16.1906C16.7562 16.3969 16.525 16.5 16.2 16.5C16.0625 16.5 15.9312 16.4563 15.8062 16.3688C15.6812 16.2813 15.5937 16.1687 15.5437 16.0312L14.925 14.1375H11.325L10.6125 16.05C10.5625 16.175 10.475 16.2813 10.35 16.3688C10.225 16.4563 10.0937 16.5 9.95625 16.5ZM11.7375 12.825H14.4L13.0875 9.1875H13.05L11.7375 12.825ZM5.41875 6.4125C5.60625 6.7375 5.8125 7.05312 6.0375 7.35938C6.2625 7.66563 6.50625 7.98125 6.76875 8.30625C7.33125 7.71875 7.8 7.10938 8.175 6.47812C8.55 5.84687 8.86875 5.1875 9.13125 4.5H1.5C1.2875 4.5 1.10938 4.42813 0.965625 4.28438C0.821875 4.14062 0.75 3.9625 0.75 3.75C0.75 3.5375 0.821875 3.35937 0.965625 3.21562C1.10938 3.07187 1.2875 3 1.5 3H6V2.25C6 2.0375 6.07188 1.85937 6.21562 1.71562C6.35938 1.57187 6.5375 1.5 6.75 1.5C6.9625 1.5 7.14062 1.57187 7.28437 1.71562C7.42812 1.85937 7.5 2.0375 7.5 2.25V3H12C12.2125 3 12.3906 3.07187 12.5344 3.21562C12.6781 3.35937 12.75 3.5375 12.75 3.75C12.75 3.9625 12.6781 4.14062 12.5344 4.28438C12.3906 4.42813 12.2125 4.5 12 4.5H10.6312C10.3562 5.3625 9.99062 6.20937 9.53437 7.04062C9.07812 7.87187 8.51875 8.6625 7.85625 9.4125L9.69375 11.2687L9.13125 12.7875L6.75 10.5L3.50625 13.7438C3.36875 13.8813 3.2 13.95 3 13.95C2.8 13.95 2.63125 13.875 2.49375 13.725C2.34375 13.5875 2.26875 13.4187 2.26875 13.2188C2.26875 13.0188 2.34375 12.8437 2.49375 12.6937L5.79375 9.39375C5.46875 9.00625 5.1625 8.61562 4.875 8.22187C4.5875 7.82812 4.325 7.425 4.0875 7.0125C3.9375 6.7375 3.925 6.5 4.05 6.3C4.175 6.1 4.4 6 4.725 6C4.8625 6 4.99687 6.04063 5.12812 6.12188C5.25937 6.20313 5.35625 6.3 5.41875 6.4125Z" fill="#125FD2"/>
</svg>
