<svg width="30" height="30" viewBox="0 0 30 30" fill="none" xmlns="http://www.w3.org/2000/svg">
<path d="M8.125 28.75C7.625 28.75 7.1875 28.5625 6.8125 28.1875C6.4375 27.8125 6.25 27.375 6.25 26.875V3.125C6.25 2.625 6.4375 2.1875 6.8125 1.8125C7.1875 1.4375 7.625 1.25 8.125 1.25H21.875C22.375 1.25 22.8125 1.4375 23.1875 1.8125C23.5625 2.1875 23.75 2.625 23.75 3.125V26.875C23.75 27.375 23.5625 27.8125 23.1875 28.1875C22.8125 28.5625 22.375 28.75 21.875 28.75H8.125ZM8.125 25.9375V26.875H21.875V25.9375H8.125ZM8.125 24.0625H21.875V5.9375H8.125V24.0625ZM8.125 4.0625H21.875V3.125H8.125V4.0625ZM8.125 4.0625V3.125V4.0625ZM8.125 25.9375V26.875V25.9375Z" fill="#125FD2"/>
</svg>
